<svg width="12" height="19" viewBox="0 0 12 19" fill="none" xmlns="http://www.w3.org/2000/svg">
<path d="M6.00001 0C2.69167 0 0 2.84121 0 6.33335C0 7.38169 0.248309 8.42112 0.720352 9.34306L5.6719 18.7959C5.73782 18.9219 5.86343 19 6.00001 19C6.13659 19 6.26221 18.9219 6.32813 18.7959L11.2815 9.33995C11.7517 8.42112 12 7.38165 12 6.33331C12 2.84121 9.30836 0 6.00001 0ZM6.00001 9.5C4.34584 9.5 3.00002 8.07942 3.00002 6.33335C3.00002 4.58728 4.34584 3.16669 6.00001 3.16669C7.65418 3.16669 9 4.58728 9 6.33335C9 8.07942 7.65418 9.5 6.00001 9.5Z" fill="black"/>
</svg>
