<svg width="8" height="15" viewBox="0 0 8 15" fill="none" xmlns="http://www.w3.org/2000/svg">
<path d="M7.99988 10.2806C8.00839 9.09385 7.55054 8.15532 6.63729 7.49254C5.93194 6.98224 5.07596 6.71605 4.24804 6.46026C2.52338 5.92456 2.02308 5.64239 2.02308 4.79736C2.02308 3.85609 3.21699 3.52119 4.23906 3.52119C4.98341 3.52119 5.83978 3.75831 6.37161 4.10972L7.42599 2.43665C6.73092 1.97497 5.77962 1.66006 4.84025 1.56232V0H2.89525V1.67188C1.16631 2.06156 0.0771729 3.21933 0.0771729 4.79736C0.0771729 5.90252 0.525397 6.77897 1.40686 7.39715C2.07727 7.86909 2.89491 8.12249 3.68473 8.36784C5.3764 8.89173 6.06335 9.21097 6.05554 10.2682L6.05549 10.276C6.05549 11.1634 4.90775 11.4788 3.92445 11.4788C2.99562 11.4788 1.98555 11.0617 1.41299 10.4416L0 11.811C0.725087 12.5968 1.77856 13.1523 2.89521 13.37V15H4.84025V13.4051C6.76145 13.1233 7.99798 11.9383 7.99988 10.2806Z" fill="#976685"/>
</svg>
