<svg width="17" height="11" viewBox="0 0 17 11" fill="none" xmlns="http://www.w3.org/2000/svg">
<path d="M15.5347 0.12146H1.58268C1.14415 0.12146 0.7854 0.480214 0.7854 0.918705V9.68856C0.7854 10.127 1.14415 10.4858 1.58268 10.4858H15.5347C15.9731 10.4858 16.332 10.1271 16.332 9.68856V0.918705C16.3319 0.480214 15.9732 0.12146 15.5347 0.12146ZM15.2355 0.719364L9.01729 5.38338C8.90549 5.46846 8.73387 5.52169 8.55863 5.5209C8.38343 5.52169 8.21184 5.46846 8.10001 5.38338L1.88183 0.719364H15.2355ZM11.9139 5.69112L15.3023 9.87675C15.3057 9.88095 15.3098 9.88413 15.3134 9.88793H1.80388C1.80746 9.88395 1.81165 9.88095 1.81505 9.87675L5.20341 5.69112C5.30722 5.56277 5.28755 5.37461 5.15895 5.27055C5.0306 5.16673 4.84244 5.18641 4.73859 5.31479L1.38333 9.45955V1.09309L7.74144 5.86168C7.98044 6.03968 8.27121 6.11802 8.5586 6.11881C8.84561 6.1182 9.13662 6.03986 9.37577 5.86168L15.7339 1.09309V9.45949L12.3787 5.31479C12.2749 5.18644 12.0865 5.1667 11.9583 5.27055C11.8298 5.37436 11.81 5.56277 11.9139 5.69112Z" fill="black"/>
</svg>
