<svg width="15" height="15" viewBox="0 0 15 15" fill="none" xmlns="http://www.w3.org/2000/svg">
<path d="M10.7809 15C10.2967 15 9.81658 14.9144 9.34711 14.7438C7.2789 13.9925 5.35915 12.7688 3.79535 11.2051C2.23154 9.64129 1.00786 7.72152 0.256576 5.6533C0.0151502 4.98864 -0.0560969 4.30254 0.0448853 3.61397C0.139481 2.969 0.389315 2.34286 0.767404 1.80324C1.14716 1.26124 1.65345 0.810435 2.23151 0.499579C2.84795 0.168099 3.52079 0 4.23138 0C4.45239 0 4.6434 0.154417 4.68971 0.370502L5.42545 3.80393C5.45876 3.9594 5.41097 4.12117 5.29857 4.23361L4.0414 5.49074C5.22735 7.84863 7.15172 9.77301 9.50961 10.959L10.7668 9.70179C10.8792 9.58938 11.041 9.54166 11.1964 9.57491L14.6299 10.3106C14.846 10.357 15.0004 10.548 15.0004 10.769C15.0004 11.4796 14.8323 12.1524 14.5007 12.7689C14.1899 13.3469 13.7391 13.8532 13.1971 14.233C12.6575 14.6111 12.0314 14.8609 11.3864 14.9555C11.1842 14.9852 10.9822 15 10.7809 15ZM3.85687 0.957969C2.91955 1.06144 2.08761 1.55273 1.53516 2.34122C0.913912 3.22786 0.769045 4.31839 1.1377 5.33325C2.5821 9.30943 5.69098 12.4183 9.66717 13.8627C10.682 14.2314 11.7725 14.0865 12.6592 13.4653C13.4477 12.9128 13.939 12.0809 14.0424 11.1435L11.2494 10.545L9.93645 11.858C9.79674 11.9977 9.58447 12.0348 9.4057 11.9508C6.61705 10.6407 4.35976 8.38337 3.04965 5.59471C2.96566 5.41592 3.00275 5.20364 3.14246 5.06396L4.45538 3.75105L3.85687 0.957969Z" fill="black"/>
</svg>
